HIERARCHY
ROOT Hips
{
	OFFSET	0.00	0.00	0.00
	CHANNELS 6 Xposition Yposition Zposition Zrotation Xrotation Yrotation
	JOINT LeftUpLeg
	{
		OFFSET	 0.126116	-0.014019	-0.065224
		CHANNELS 3 Zrotation Xrotation Yrotation
		JOINT LeftLeg
		{
			OFFSET	 0.000000	 0.000000	 0.569914
			CHANNELS 3 Zrotation Xrotation Yrotation
			JOINT LeftFoot
			{
				OFFSET	 0.000000	 0.000000	 0.544423
				CHANNELS 3 Zrotation Xrotation Yrotation
				JOINT LeftToeBase
				{
					OFFSET	 0.000000	 0.000000	 0.207117
					CHANNELS 3 Zrotation Xrotation Yrotation
					End Site
					{
						OFFSET	 0.000000	 0.000000	 0.207117
					}
				}
			}
		}
	}
	JOINT RightUpLeg
	{
		OFFSET	-0.124023	-0.008373	-0.065224
		CHANNELS 3 Zrotation Xrotation Yrotation
		JOINT RightLeg
		{
			OFFSET	 0.000000	 0.000000	 0.570047
			CHANNELS 3 Zrotation Xrotation Yrotation
			JOINT RightFoot
			{
				OFFSET	 0.000000	 0.000000	 0.544354
				CHANNELS 3 Zrotation Xrotation Yrotation
				JOINT RightToeBase
				{
					OFFSET	 0.000000	 0.000000	 0.207540
					CHANNELS 3 Zrotation Xrotation Yrotation
					End Site
					{
						OFFSET	 0.000000	 0.000000	 0.207540
					}
				}
			}
		}
	}
	JOINT Spine
	{
		OFFSET	 0.000184	-0.007763	 0.117403
		CHANNELS 3 Zrotation Xrotation Yrotation
		JOINT Spine1
		{
			OFFSET	 0.000000	 0.000000	 0.137269
			CHANNELS 3 Zrotation Xrotation Yrotation
			JOINT Spine2
			{
				OFFSET	 0.000000	 0.000000	 0.156879
				CHANNELS 3 Zrotation Xrotation Yrotation
				JOINT LeftShoulder
				{
					OFFSET	 0.080501	-0.002496	 0.160144
					CHANNELS 3 Zrotation Xrotation Yrotation
					JOINT LeftArm
					{
						OFFSET	 0.000000	 0.000000	 0.164363
						CHANNELS 3 Zrotation Xrotation Yrotation
						JOINT LeftForeArm
						{
							OFFSET	 0.000000	 0.000000	 0.364576
							CHANNELS 3 Zrotation Xrotation Yrotation
							JOINT LeftHand
							{
								OFFSET	 0.000000	 0.000000	 0.360812
								CHANNELS 3 Zrotation Xrotation Yrotation
								JOINT LeftHandIndex1
								{
									OFFSET	 0.000000	 0.000000	 0.086006
									CHANNELS 3 Zrotation Xrotation Yrotation
									JOINT LeftHandIndex2
									{
										OFFSET	 0.000000	 0.000000	 0.047236
										CHANNELS 3 Zrotation Xrotation Yrotation
										JOINT LeftHandIndex3
										{
											OFFSET	-0.004284	-0.000551	 0.038166
											CHANNELS 3 Zrotation Xrotation Yrotation
											End Site
											{
												OFFSET	-0.004284	-0.000551	 0.038166
											}
										}
									}
								}
							}
						}
					}
				}
				JOINT Neck
				{
					OFFSET	 0.000000	 0.000000	 0.176489
					CHANNELS 3 Zrotation Xrotation Yrotation
					JOINT Head
					{
						OFFSET	 0.000000	-0.001747	 0.077940
						CHANNELS 3 Zrotation Xrotation Yrotation
						End Site
						{
							OFFSET	 0.000000	-0.001747	 0.077940
						}
					}
				}
				JOINT RightShoulder
				{
					OFFSET	-0.080363	 0.000306	 0.159706
					CHANNELS 3 Zrotation Xrotation Yrotation
					JOINT RightArm
					{
						OFFSET	 0.000000	 0.000000	 0.164196
						CHANNELS 3 Zrotation Xrotation Yrotation
						JOINT RightForeArm
						{
							OFFSET	 0.000000	 0.000000	 0.365611
							CHANNELS 3 Zrotation Xrotation Yrotation
							JOINT RightHand
							{
								OFFSET	 0.000000	 0.000000	 0.360648
								CHANNELS 3 Zrotation Xrotation Yrotation
								JOINT RightHandIndex1
								{
									OFFSET	 0.000000	 0.000000	 0.069977
									CHANNELS 3 Zrotation Xrotation Yrotation
									JOINT RightHandIndex2
									{
										OFFSET	 0.000000	 0.000000	 0.052305
										CHANNELS 3 Zrotation Xrotation Yrotation
										JOINT RightHandIndex3
										{
											OFFSET	 0.009002	-0.000782	 0.042196
											CHANNELS 3 Zrotation Xrotation Yrotation
											End Site
											{
												OFFSET	 0.009002	-0.000782	 0.042196
											}
										}
									}
								}
							}
						}
					}
				}
			}
		}
	}
}
MOTION
Frames:    7
Frame Time: 0.03333334
-0.000394	 0.019664	 1.263239	 0.003731	 0.009115	-0.053618	-13.575450	-4.556005	-179.873300	 1.372015	-18.238120	-1.086209	-5.821859	 74.789030	-0.497765	-2.385833	 28.452760	 0.000004	 13.453910	-4.955717	-179.979200	-1.351900	-18.670700	 1.093391	 5.752666	 74.838580	 0.408293	 2.384658	 28.388730	 0.000004	 1.283563	 2.722707	 0.000105	 0.666184	 3.650087	 0.335752	-2.002033	-4.642175	-0.472265	-91.776190	 78.527420	 180.000000	 61.166070	 42.502030	-44.570050	-7.652777	 4.835979	-12.186020	-30.001990	-16.367590	-4.428402	-2.635965	 4.993658	 6.788941	-5.165319	 0.784187	 3.516649	-5.225038	 0.466231	 0.424329	-0.000002	-3.783157	-0.089647	-1.935045	 5.036169	 0.085092	 89.782170	 78.203900	 179.999900	 3.893554	 13.200790	 100.524700	-34.334010	-0.163885	 0.485235	 1.669990	-16.853310	-6.403973	 6.112037	 4.509576	-0.364401	 4.968462	 1.518543	-9.347576	 5.168945	 0.703820	 2.021906
-0.000406	 0.018666	 1.263512	 0.003733	 0.009111	-0.053613	-13.574940	-4.453103	-179.877900	 1.375756	-18.049710	-1.074201	-5.758181	 74.704930	-0.564340	-2.385833	 28.452760	 0.000004	 13.450750	-4.800497	-179.982700	-1.356233	-18.454060	 1.079775	 5.659873	 74.779270	 0.506731	 2.384658	 28.388730	 0.000004	 1.283498	 2.723230	 0.000091	 0.666132	 3.648282	 0.335702	-2.001890	-4.639885	-0.472148	-91.776160	 78.527450	 180.000000	 61.205190	 42.463370	-44.593230	-7.653688	 4.831990	-12.175710	-30.012590	-16.477190	-4.431205	-2.635965	 4.993658	 6.788941	-5.165319	 0.784187	 3.516649	-5.225038	 0.466231	 0.424329	-0.000002	-3.783157	-0.089647	-1.934946	 5.037256	 0.085106	 89.782090	 78.203870	-180.000000	 3.904974	 13.429160	 100.565300	-34.496750	-0.165708	 0.486100	 1.659516	-17.090510	-6.483385	 6.112037	 4.509576	-0.364401	 4.968462	 1.518543	-9.347576	 5.168945	 0.703820	 2.021906
-0.000421	 0.017606	 1.263802	 0.003734	 0.009108	-0.053616	-13.574400	-4.342990	-179.883000	 1.379704	-17.847840	-1.061368	-5.690822	 74.614660	-0.634771	-2.385833	 28.452760	 0.000004	 13.447490	-4.634422	-179.986300	-1.360832	-18.221150	 1.065177	 5.561463	 74.714640	 0.611162	 2.384658	 28.388730	 0.000004	 1.283419	 2.723786	 0.000082	 0.666072	 3.646381	 0.335737	-2.001732	-4.637454	-0.472075	-91.776170	 78.527450	 180.000000	 61.299340	 42.407040	-44.676240	-7.655303	 4.824834	-12.157310	-30.038600	-16.628020	-4.436853	-2.635965	 4.993658	 6.788941	-5.165319	 0.784187	 3.516649	-5.225038	 0.466231	 0.424329	-0.000002	-3.783157	-0.089647	-1.934855	 5.038422	 0.085121	 89.782090	 78.203900	 180.000000	 3.909786	 13.734400	 100.617700	-34.685020	-0.166935	 0.484311	 1.485229	-17.240000	-6.546648	 6.112037	 4.509576	-0.364401	 4.968462	 1.518543	-9.347576	 5.168945	 0.703820	 2.021906
-0.000426	 0.016569	 1.264063	 0.003731	 0.009105	-0.053572	-13.573870	-4.241751	-179.887500	 1.383268	-17.663570	-1.049682	-5.629691	 74.532910	-0.698750	-2.385833	 28.452760	 0.000004	 13.444370	-4.478292	-179.990100	-1.365027	-18.005200	 1.051674	 5.469690	 74.656800	 0.708609	 2.384658	 28.388730	 0.000004	 1.283343	 2.724320	 0.000052	 0.666017	 3.644523	 0.335705	-2.001565	-4.635098	-0.471965	-91.776140	 78.527430	 180.000000	 61.449440	 42.360220	-44.837710	-7.656717	 4.817329	-12.138120	-30.079450	-16.806610	-4.445304	-2.635965	 4.993658	 6.788941	-5.165319	 0.784187	 3.516649	-5.225038	 0.466231	 0.424329	-0.000002	-3.783157	-0.089647	-1.934723	 5.039481	 0.085133	 89.782120	 78.203890	 180.000000	 3.778719	 14.209920	 100.643200	-34.669350	-0.166753	 0.484389	 0.522927	-17.157370	-6.541673	 6.112037	 4.509576	-0.364401	 4.968462	 1.518543	-9.347576	 5.168945	 0.703820	 2.021906
-0.000399	 0.015530	 1.264169	 0.003737	 0.009103	-0.053566	-13.573270	-4.189783	-179.887900	 1.384856	-17.580860	-1.044440	-5.598771	 74.502880	-0.731374	-2.385833	 28.452760	 0.000004	 13.441300	-4.371703	-179.997500	-1.367259	-17.889040	 1.044426	 5.407721	 74.648630	 0.774980	 2.384658	 28.388730	 0.000004	 1.283264	 2.724839	 0.000038	 0.665960	 3.642761	 0.335682	-2.001412	-4.632840	-0.471869	-91.776140	 78.527470	 179.999900	 61.665950	 42.342800	-45.107630	-7.658571	 4.809262	-12.117360	-30.134650	-17.008180	-4.456355	-2.635965	 4.993658	 6.788941	-5.165319	 0.784187	 3.516649	-5.225038	 0.466231	 0.424329	-0.000002	-3.783157	-0.089647	-1.934620	 5.040611	 0.085148	 89.782150	 78.203890	 180.000000	 3.642151	 15.414320	 100.676500	-33.884580	-0.160015	 0.486269	-0.348353	-17.366290	-6.480572	 6.112037	 4.509576	-0.364401	 4.968462	 1.518543	-9.347576	 5.168945	 0.703820	 2.021906
-0.000358	 0.014496	 1.264269	 0.003731	 0.009094	-0.053527	-13.572640	-4.140298	-179.888200	 1.386341	-17.503010	-1.039513	-5.569439	 74.475160	-0.762303	-2.385833	 28.452760	 0.000004	 13.438350	-4.267847	 179.995100	-1.369397	-17.777070	 1.037447	 5.347466	 74.641870	 0.839568	 2.384658	 28.388730	 0.000004	 1.283185	 2.725351	 0.000010	 0.665905	 3.640994	 0.335682	-2.001251	-4.630588	-0.471783	-91.776180	 78.527490	 180.000000	 61.967700	 42.368980	-45.524270	-7.661218	 4.797087	-12.086020	-30.202560	-17.229380	-4.469741	-2.635965	 4.993658	 6.788941	-5.165319	 0.784187	 3.516649	-5.225038	 0.466231	 0.424329	-0.000002	-3.783157	-0.089647	-1.934483	 5.041636	 0.085159	 89.782120	 78.203900	 180.000000	 2.742580	 17.289290	 100.614100	-32.222420	-0.145673	 0.490192	-0.066210	-18.198030	-6.410875	 6.112037	 4.509576	-0.364401	 4.968462	 1.518543	-9.347576	 5.168945	 0.703820	 2.021906
-0.000368	 0.013538	 1.264950	 0.003736	 0.009094	-0.053557	-13.572410	-3.899340	-179.904500	 1.395248	-17.027470	-1.009508	-5.427530	 74.243610	-0.910252	-2.385833	 28.452760	 0.000004	 13.435430	-3.974738	-179.996600	-1.378842	-17.271970	 1.006075	 5.178277	 74.433400	 1.017202	 2.384658	 28.388730	 0.000004	 1.283095	 2.725866	 0.000017	 0.665838	 3.639220	 0.335700	-2.001085	-4.628330	-0.471697	-91.776200	 78.527470	-180.000000	 62.370680	 42.440040	-46.116200	-7.665798	 4.775914	-12.031610	-30.275240	-17.465120	-4.484143	-2.635965	 4.993658	 6.788941	-5.165319	 0.784187	 3.516649	-5.225038	 0.466231	 0.424329	-0.000002	-3.783157	-0.089647	-1.934372	 5.042728	 0.085173	 89.782170	 78.203870	 179.999900	-1.094789	 19.662520	 100.214200	-29.946810	-0.126354	 0.496403	 1.489775	-19.521700	-6.258765	 6.112037	 4.509576	-0.364401	 4.968462	 1.518543	-9.347576	 5.168945	 0.703820	 2.021906
